# xmcd
#
# Track frame offsets: 
#        150
#        19534
#        45004
#        61769
#        77478
#        95904
#        116268
#        138264
#        165135
#        177736
#        196210
#
# Disc length: 2815 seconds
#
# Revision: 0
# Processed by: cddbd v1.5.2PL0 Copyright (c) Steve Scherf et al.
# Submitted via: ExactAudioCopy v0.99pb4
#
DISCID=790afd0b
DTITLE=Sam Moore - Singing From The Old School
DYEAR=2006
DGENRE=R&B
TTITLE0=From The Old School
TTITLE1=Friends
TTITLE2=I Want You Back
TTITLE3=Singing The Blues
TTITLE4=Country Living
TTITLE5=The Same Dream
TTITLE6=All The Things In Life
TTITLE7=My Mississippi Girl
TTITLE8=Call The Preacher
TTITLE9=Just Like The Movies
TTITLE10=Settle Down
EXTD=
EXTT0=
EXTT1=
EXTT2=
EXTT3=
EXTT4=
EXTT5=
EXTT6=
EXTT7=
EXTT8=
EXTT9=
EXTT10=
PLAYORDER=
